{
  "asset": {
    "generator": "Khronos glTF Blender I/O v4.2.69",
    "version": "2.0"
  },
  "extensionsUsed": [
    "KHR_materials_specular"
  ],
  "scene": 0,
  "scenes": [
    {
      "name": "Scene",
      "nodes": [
        0
      ]
    }
  ],
  "nodes": [
    {
      "mesh": 0,
      "name": "Radio_01",
      "rotation": [
        0,
        0.7071067094802856,
        0,
        0.7071068286895752
      ],
      "scale": [
        -0.16348277032375336,
        -0.16348277032375336,
        -0.16348277032375336
      ],
      "translation": [
        13.0242280960083,
        0.23432523012161255,
        7.8725128173828125
      ]
    }
  ],
  "materials": [
    {
      "doubleSided": true,
      "extensions": {
        "KHR_materials_specular": {
          "specularFactor": 0
        }
      },
      "name": "Electronics",
      "pbrMetallicRoughness": {
        "baseColorTexture": {
          "index": 0,
          "texCoord": 0
        },
        "metallicFactor": 0,
        "baseColorFactor": [
          1,
          1,
          1,
          1
        ],
        "roughnessFactor": 1
      },
      "emissiveFactor": [
        0,
        0,
        0
      ],
      "alphaMode": "OPAQUE"
    }
  ],
  "meshes": [
    {
      "name": "Radio_01",
      "primitives": [
        {
          "attributes": {
            "POSITION": 0,
            "NORMAL": 1,
            "TEXCOORD_0": 2
          },
          "indices": 3,
          "material": 0,
          "mode": 4
        }
      ]
    }
  ],
  "textures": [
    {
      "sampler": 0,
      "source": 0
    }
  ],
  "images": [
    {
      "mimeType": "image/jpeg",
      "name": "Electronics",
      "uri": "Electronics.jpg"
    }
  ],
  "accessors": [
    {
      "bufferView": 0,
      "componentType": 5126,
      "count": 49,
      "max": [
        0.4950212240219116,
        1,
        1.7820910215377808
      ],
      "min": [
        -0.4950214624404907,
        -2.9864344596862793,
        -1.7820910215377808
      ],
      "type": "VEC3",
      "byteOffset": 0
    },
    {
      "bufferView": 1,
      "componentType": 5126,
      "count": 49,
      "type": "VEC3",
      "byteOffset": 0
    },
    {
      "bufferView": 2,
      "componentType": 5126,
      "count": 49,
      "type": "VEC2",
      "byteOffset": 0
    },
    {
      "bufferView": 3,
      "componentType": 5123,
      "count": 93,
      "type": "SCALAR",
      "byteOffset": 0
    }
  ],
  "bufferViews": [
    {
      "buffer": 0,
      "byteLength": 588,
      "byteOffset": 0,
      "target": 34962,
      "byteStride": 12
    },
    {
      "buffer": 0,
      "byteLength": 588,
      "byteOffset": 592,
      "target": 34962,
      "byteStride": 12
    },
    {
      "buffer": 0,
      "byteLength": 392,
      "byteOffset": 1184,
      "target": 34962,
      "byteStride": 8
    },
    {
      "buffer": 0,
      "byteLength": 186,
      "byteOffset": 1576,
      "target": 34963
    }
  ],
  "samplers": [
    {
      "magFilter": 9729,
      "minFilter": 9987,
      "wrapS": 10497,
      "wrapT": 10497
    }
  ],
  "buffers": [
    {
      "name": "Radio",
      "byteLength": 1768,
      "uri": "Radio.bin"
    }
  ]
}
