{
  "asset": {
    "generator": "Khronos glTF Blender I/O v4.2.69",
    "version": "2.0"
  },
  "extensionsUsed": [
    "KHR_materials_specular"
  ],
  "scene": 0,
  "scenes": [
    {
      "name": "Scene",
      "nodes": [
        0
      ]
    }
  ],
  "nodes": [
    {
      "mesh": 0,
      "name": "TV_04",
      "scale": [
        0.3751864433288574,
        0.3751864433288574,
        0.3751864433288574
      ],
      "translation": [
        10.04434871673584,
        0.45775842666625977,
        6.729720115661621
      ],
      "rotation": [
        0,
        0,
        0,
        1
      ]
    }
  ],
  "materials": [
    {
      "doubleSided": true,
      "extensions": {
        "KHR_materials_specular": {
          "specularFactor": 0
        }
      },
      "name": "Electronics",
      "pbrMetallicRoughness": {
        "baseColorTexture": {
          "index": 0,
          "texCoord": 0
        },
        "metallicFactor": 0,
        "baseColorFactor": [
          1,
          1,
          1,
          1
        ],
        "roughnessFactor": 1
      },
      "emissiveFactor": [
        0,
        0,
        0
      ],
      "alphaMode": "OPAQUE"
    },
    {
      "doubleSided": true,
      "emissiveFactor": [
        0.0010875638108700514,
        1,
        0
      ],
      "name": "Emissor",
      "pbrMetallicRoughness": {
        "baseColorFactor": [
          0.800000011920929,
          0.800000011920929,
          0.800000011920929,
          1
        ],
        "metallicFactor": 0,
        "roughnessFactor": 0.5
      },
      "alphaMode": "OPAQUE"
    }
  ],
  "meshes": [
    {
      "name": "TV_04",
      "primitives": [
        {
          "attributes": {
            "POSITION": 0,
            "NORMAL": 1,
            "TEXCOORD_0": 2
          },
          "indices": 3,
          "material": 0,
          "mode": 4
        },
        {
          "attributes": {
            "POSITION": 4,
            "NORMAL": 5,
            "TEXCOORD_0": 6
          },
          "indices": 7,
          "material": 1,
          "mode": 4
        }
      ]
    }
  ],
  "textures": [
    {
      "sampler": 0,
      "source": 0
    }
  ],
  "images": [
    {
      "mimeType": "image/jpeg",
      "name": "Electronics",
      "uri": "Electronics.jpg"
    }
  ],
  "accessors": [
    {
      "bufferView": 0,
      "componentType": 5126,
      "count": 96,
      "max": [
        1.6634511947631836,
        1.2215322256088257,
        0.25378695130348206
      ],
      "min": [
        -1.6634526252746582,
        -1.2292667627334595,
        -0.3907232880592346
      ],
      "type": "VEC3",
      "byteOffset": 0
    },
    {
      "bufferView": 1,
      "componentType": 5126,
      "count": 96,
      "type": "VEC3",
      "byteOffset": 0
    },
    {
      "bufferView": 2,
      "componentType": 5126,
      "count": 96,
      "type": "VEC2",
      "byteOffset": 0
    },
    {
      "bufferView": 3,
      "componentType": 5123,
      "count": 156,
      "type": "SCALAR",
      "byteOffset": 0
    },
    {
      "bufferView": 4,
      "componentType": 5126,
      "count": 4,
      "max": [
        1.5523380041122437,
        1.1104190349578857,
        -0.04434807971119881
      ],
      "min": [
        -1.5523394346237183,
        -0.6673545837402344,
        -0.04434807971119881
      ],
      "type": "VEC3",
      "byteOffset": 0
    },
    {
      "bufferView": 5,
      "componentType": 5126,
      "count": 4,
      "type": "VEC3",
      "byteOffset": 0
    },
    {
      "bufferView": 6,
      "componentType": 5126,
      "count": 4,
      "type": "VEC2",
      "byteOffset": 0
    },
    {
      "bufferView": 7,
      "componentType": 5123,
      "count": 6,
      "type": "SCALAR",
      "byteOffset": 0
    }
  ],
  "bufferViews": [
    {
      "buffer": 0,
      "byteLength": 1152,
      "byteOffset": 0,
      "target": 34962,
      "byteStride": 12
    },
    {
      "buffer": 0,
      "byteLength": 1152,
      "byteOffset": 1152,
      "target": 34962,
      "byteStride": 12
    },
    {
      "buffer": 0,
      "byteLength": 768,
      "byteOffset": 2304,
      "target": 34962,
      "byteStride": 8
    },
    {
      "buffer": 0,
      "byteLength": 312,
      "byteOffset": 3072,
      "target": 34963
    },
    {
      "buffer": 0,
      "byteLength": 48,
      "byteOffset": 3384,
      "target": 34962,
      "byteStride": 12
    },
    {
      "buffer": 0,
      "byteLength": 48,
      "byteOffset": 3432,
      "target": 34962,
      "byteStride": 12
    },
    {
      "buffer": 0,
      "byteLength": 32,
      "byteOffset": 3480,
      "target": 34962,
      "byteStride": 8
    },
    {
      "buffer": 0,
      "byteLength": 12,
      "byteOffset": 3512,
      "target": 34963
    }
  ],
  "samplers": [
    {
      "magFilter": 9729,
      "minFilter": 9987,
      "wrapS": 10497,
      "wrapT": 10497
    }
  ],
  "buffers": [
    {
      "name": "monitor",
      "byteLength": 3528,
      "uri": "monitor.bin"
    }
  ]
}
