{
  "asset": {
    "generator": "Khronos glTF Blender I/O v4.2.69",
    "version": "2.0"
  },
  "extensionsUsed": [
    "KHR_materials_specular"
  ],
  "scene": 0,
  "scenes": [
    {
      "name": "Scene",
      "nodes": [
        0
      ]
    }
  ],
  "nodes": [
    {
      "mesh": 0,
      "name": "Ventilator",
      "scale": [
        0.6351967453956604,
        0.6351967453956604,
        0.6351967453956604
      ],
      "translation": [
        -13.143351554870605,
        -0.06267836689949036,
        0.5712804794311523
      ]
    }
  ],
  "materials": [
    {
      "alphaMode": "BLEND",
      "doubleSided": true,
      "extensions": {
        "KHR_materials_specular": {
          "specularFactor": 0
        }
      },
      "name": "Ventilator",
      "pbrMetallicRoughness": {
        "baseColorTexture": {
          "index": 0
        },
        "metallicFactor": 0
      }
    }
  ],
  "meshes": [
    {
      "name": "Ventilator",
      "primitives": [
        {
          "attributes": {
            "POSITION": 0,
            "NORMAL": 1,
            "TEXCOORD_0": 2
          },
          "indices": 3,
          "material": 0
        }
      ]
    }
  ],
  "textures": [
    {
      "sampler": 0,
      "source": 0
    }
  ],
  "images": [
    {
      "name": "Ventilator",
      "uri": "Vent_img0.png"
    }
  ],
  "accessors": [
    {
      "bufferView": 0,
      "componentType": 5126,
      "count": 397,
      "max": [
        0.49575451016426086,
        2.6801016330718994,
        0.5218387246131897
      ],
      "min": [
        -0.49575451016426086,
        -0.06376195698976517,
        -0.5218385457992554
      ],
      "type": "VEC3"
    },
    {
      "bufferView": 1,
      "componentType": 5126,
      "count": 397,
      "type": "VEC3"
    },
    {
      "bufferView": 2,
      "componentType": 5126,
      "count": 397,
      "type": "VEC2"
    },
    {
      "bufferView": 3,
      "componentType": 5123,
      "count": 918,
      "type": "SCALAR"
    }
  ],
  "bufferViews": [
    {
      "buffer": 0,
      "byteLength": 4764,
      "byteOffset": 0,
      "target": 34962
    },
    {
      "buffer": 0,
      "byteLength": 4764,
      "byteOffset": 4764,
      "target": 34962
    },
    {
      "buffer": 0,
      "byteLength": 3176,
      "byteOffset": 9528,
      "target": 34962
    },
    {
      "buffer": 0,
      "byteLength": 1836,
      "byteOffset": 12704,
      "target": 34963
    }
  ],
  "samplers": [
    {
      "magFilter": 9729,
      "minFilter": 9987
    }
  ],
  "buffers": [
    {
      "uri": "Vent_data.bin",
      "byteLength": 14540
    }
  ]
}